<svg width="12" height="24" viewBox="0 0 12 24" fill="none" xmlns="http://www.w3.org/2000/svg">
<path d="M9.70074 23.9999C9.45248 24.0008 9.20718 23.9442 8.98287 23.8345C8.75856 23.7247 8.56094 23.5645 8.40454 23.3657L0.37804 13.0809C0.133619 12.7742 0 12.3895 0 11.9924C0 11.5954 0.133619 11.2107 0.37804 10.904L8.68705 0.619231C8.96912 0.269179 9.37445 0.0490432 9.81387 0.00725332C10.2533 -0.0345366 10.6908 0.105442 11.0302 0.396395C11.3696 0.687348 11.583 1.10544 11.6235 1.5587C11.664 2.01196 11.5283 2.46326 11.2462 2.81331L3.81797 12.001L10.9969 21.1887C11.2002 21.4403 11.3292 21.7467 11.3689 22.0716C11.4086 22.3965 11.3572 22.7264 11.2209 23.0221C11.0845 23.3178 10.8689 23.5671 10.5995 23.7404C10.3301 23.9137 10.0182 24.0037 9.70074 23.9999Z" fill="#EE8288"/>
</svg>
