<?xml version="1.0" standalone="no"?>
<!DOCTYPE svg PUBLIC "-//W3C//DTD SVG 20010904//EN"
 "http://www.w3.org/TR/2001/REC-SVG-20010904/DTD/svg10.dtd">
<svg version="1.0" xmlns="http://www.w3.org/2000/svg"
 width="189.000000pt" height="58.000000pt" viewBox="0 0 189.000000 58.000000"
 preserveAspectRatio="xMidYMid meet">

<g transform="translate(0.000000,58.000000) scale(0.100000,-0.100000)"
fill="#000000" stroke="none">
<path d="M187 526 c-58 -16 -110 -64 -126 -115 -18 -61 -14 -169 9 -219 27
-60 77 -81 191 -82 47 0 99 5 116 10 28 10 29 13 29 68 0 31 3 77 8 101 l9 44
-69 -6 c-75 -6 -104 3 -104 33 0 28 18 35 95 35 66 0 70 1 79 27 12 34 -7 82
-39 96 -41 19 -146 23 -198 8z"/>
<path d="M600 531 c-77 -17 -107 -48 -121 -127 -5 -32 -16 -94 -24 -136 -23
-124 1 -158 110 -158 74 0 100 24 91 83 -14 92 -14 92 22 95 37 4 53 -19 34
-49 -7 -10 -12 -37 -12 -58 0 -53 26 -71 100 -71 75 0 93 14 80 60 -7 23 -6
54 1 98 22 123 -9 219 -78 248 -42 18 -153 26 -203 15z m125 -125 c33 -24 12
-46 -45 -46 -38 0 -52 4 -57 16 -8 21 22 44 57 44 14 0 35 -6 45 -14z"/>
<path d="M983 525 c-37 -16 -40 -25 -47 -145 -3 -47 -8 -108 -12 -137 -9 -69
0 -100 36 -118 38 -20 119 -19 148 1 26 18 30 74 7 114 -19 33 -19 59 1 67 24
9 44 -23 44 -69 0 -49 22 -103 48 -117 24 -13 111 -14 130 -2 10 6 11 18 4 49
-6 25 -6 61 0 92 5 29 7 55 4 58 -3 3 -23 5 -45 4 -42 -2 -65 16 -55 42 6 16
24 23 74 28 22 3 26 10 33 57 12 71 -3 86 -79 85 -66 0 -79 -11 -103 -90 -15
-51 -20 -59 -42 -59 -23 0 -24 2 -21 65 4 63 3 67 -23 78 -33 15 -62 15 -102
-3z"/>
<path d="M1449 529 c-36 -13 -46 -45 -54 -159 -3 -52 -8 -114 -11 -138 -12
-83 25 -122 114 -122 86 0 113 47 77 133 -17 40 -11 70 14 65 18 -4 28 -31 37
-102 8 -70 37 -96 107 -96 91 0 128 51 107 145 -12 51 -31 69 -76 67 -36 -1
-64 11 -64 29 0 18 34 39 64 39 19 0 39 7 46 15 18 22 18 92 -1 110 -23 24
-80 29 -121 12 -30 -13 -39 -23 -48 -59 -20 -72 -29 -88 -49 -88 -25 0 -31 17
-22 66 9 54 4 74 -25 85 -31 11 -61 11 -95 -2z"/>
</g>
</svg>
